<?xml version="1.0" encoding="iso-8859-1"?>
<!-- Generator: Adobe Illustrator 19.0.0, SVG Export Plug-In . SVG Version: 6.00 Build 0)  -->
<svg version="1.1" id="Capa_1" xmlns="http://www.w3.org/2000/svg" xmlns:xlink="http://www.w3.org/1999/xlink" x="0px" y="0px"
	 viewBox="0 0 512.013 512.013" style="enable-background:new 0 0 512.013 512.013;" xml:space="preserve">
<path style="fill:#FFC107;" d="M394.673,256.013c14.026,0.022,27.968,2.18,41.344,6.4l32.96-120.832
	c1.602-5.669-1.694-11.563-7.363-13.166c-0.957-0.27-1.947-0.406-2.941-0.402H32.007c-5.891,0.006-10.662,4.787-10.655,10.678
	c0.001,0.94,0.126,1.876,0.373,2.783l55.467,203.221c6.35,23.174,27.385,39.26,51.413,39.317h128
	C262.221,311.877,322.319,256.162,394.673,256.013z"/>
<g>
	<path style="fill:#455A64;" d="M138.673,149.346c-5.891-0.003-10.664-4.781-10.661-10.672c0.001-2.101,0.623-4.155,1.786-5.904
		l85.333-128c3.27-4.901,9.893-6.224,14.795-2.955s6.224,9.893,2.955,14.795l0,0l-85.333,128
		C145.567,147.572,142.237,149.349,138.673,149.346z"/>
	<path style="fill:#455A64;" d="M352.007,149.346c-3.575,0.005-6.915-1.781-8.896-4.757l-85.333-128
		c-3.27-4.901-1.947-11.525,2.955-14.795s11.525-1.947,14.795,2.955l85.333,128c3.275,4.897,1.961,11.521-2.935,14.797
		C356.173,148.717,354.114,149.344,352.007,149.346z"/>
	<path style="fill:#455A64;" d="M480.007,149.346H10.673c-5.891,0-10.667-4.776-10.667-10.667s4.776-10.667,10.667-10.667h469.333
		c5.891,0,10.667,4.776,10.667,10.667S485.898,149.346,480.007,149.346z"/>
</g>
<circle style="fill:#4CAF50;" cx="394.673" cy="394.68" r="117.333"/>
<path style="fill:#FAFAFA;" d="M373.34,448.013c-2.831,0.005-5.548-1.115-7.552-3.115l-42.667-42.667
	c-4.093-4.237-3.975-10.99,0.262-15.083c4.134-3.993,10.687-3.993,14.821,0l35.136,35.115l77.781-77.781
	c4.237-4.093,10.99-3.976,15.083,0.261c3.993,4.134,3.993,10.688,0,14.821l-85.333,85.333
	C378.872,446.892,376.163,448.013,373.34,448.013z"/>
<g>
</g>
<g>
</g>
<g>
</g>
<g>
</g>
<g>
</g>
<g>
</g>
<g>
</g>
<g>
</g>
<g>
</g>
<g>
</g>
<g>
</g>
<g>
</g>
<g>
</g>
<g>
</g>
<g>
</g>
</svg>
