<?xml version="1.0" encoding="utf-8"?>
<!-- Generator: Adobe Illustrator 24.2.1, SVG Export Plug-In . SVG Version: 6.00 Build 0)  -->
<svg version="1.1" id="Capa_1" xmlns="http://www.w3.org/2000/svg" xmlns:xlink="http://www.w3.org/1999/xlink" x="0px" y="0px"
	 viewBox="0 0 512 512" style="enable-background:new 0 0 512 512;" xml:space="preserve">
<style type="text/css">
	.st0{fill:url(#SVGID_1_);}
	.st1{opacity:0.1;fill:#590BB2;enable-background:new    ;}
	.st2{fill:#FDD250;}
	.st3{fill:#FFC136;}
	.st4{fill:#FFA052;}
	.st5{fill:#FF8736;}
	.st6{fill:#FFFFFF;}
	.st7{fill:#EFEBFF;}
	.st8{fill:#F7F3FF;}
	.st9{fill:#C182F9;}
	.st10{fill:#FFE783;}
	.st11{fill:#590BB2;}
</style>
<g>
	
		<linearGradient id="SVGID_1_" gradientUnits="userSpaceOnUse" x1="503.4716" y1="-28.4723" x2="20.4227" y2="526.5838" gradientTransform="matrix(1 0 0 -1 0 511.89)">
		<stop  offset="0" style="stop-color:#FFA052"/>
		<stop  offset="1" style="stop-color:#FFFFFF;stop-opacity:0"/>
	</linearGradient>
	<path class="st0" d="M500.6,200.6c7.2-16.2,11.2-34.1,11.4-52.9c0.7-72-56.2-132.1-128.1-135.2c-23.6-1-45.9,4.1-65.5,13.8
		c-39.3,19.6-85.4,19.6-124.8,0c-19.6-9.8-41.9-14.8-65.5-13.8C56.2,15.6-0.7,75.7,0,147.7c0.2,18.8,4.2,36.7,11.4,52.9
		c15.6,35.3,15.6,75.5,0,110.8C4.2,327.6,0.2,345.5,0,364.3c-0.7,72,56.2,132.1,128.1,135.2c23.6,1,45.9-4.1,65.5-13.8
		c39.3-19.6,85.4-19.6,124.8,0c19.6,9.8,41.9,14.8,65.5,13.8c71.9-3.1,128.8-63.2,128.1-135.2c-0.2-18.8-4.2-36.7-11.4-52.9
		C484.9,276.1,484.9,235.9,500.6,200.6L500.6,200.6z"/>
	<g>
		<path class="st1" d="M437,179.3H75c-8.3,0-15,6.7-15,15v203.9c0,8.3,6.7,15,15,15h126.2v23.5c0,4,4.5,6.4,7.8,4.1l13.3-9.1
			l13.3,9.1c3.3,2.3,7.8-0.1,7.8-4.1v-23.5H437c8.3,0,15-6.7,15-15V194.3C452,186,445.3,179.3,437,179.3L437,179.3z"/>
		<g>
			<g>
				<path class="st2" d="M452,167.3v203.9c0,8.3-6.7,15-15,15H75c-8.3,0-15-6.7-15-15V167.3c0-8.3,6.7-15,15-15H437
					C445.3,152.3,452,159,452,167.3L452,167.3z"/>
				<path class="st3" d="M419,152.3v210.2c0,5.5-4.5,10-10,10H266c-2.8,0-5.3-1.1-7.1-2.9s-2.9-4.3-2.9-7.1c0,5.5-4.5,10-10,10H103
					c-5.5,0-10-4.5-10-10V152.3L419,152.3z"/>
				<g>
					<path class="st4" d="M452,339.9H60V167.3c0-8.3,6.7-15,15-15H437c8.3,0,15,6.7,15,15V339.9z"/>
				</g>
				<g>
					<path class="st4" d="M243.4,348.2v61.6c0,4-4.5,6.4-7.8,4.1l-13.3-9.1l-13.3,9.1c-3.3,2.3-7.8-0.1-7.8-4.1v-61.6H243.4z"/>
					<path class="st5" d="M201.1,348.2h42.3v24.4h-42.3V348.2z"/>
				</g>
			</g>
			<g>
				<path class="st6" d="M256,155.5V345c0,5.5-4.5,10-10,10H103c-5.5,0-10-4.5-10-10V140.5c0-5.5,4.5-10,10-10h128
					C244.8,130.5,256,141.7,256,155.5L256,155.5z"/>
				<g>
					<path class="st7" d="M206.2,229.8c-3.8,2.8-7.4,4.2-10.8,4.2c-3.1,0-5.6-1.4-7.5-4.4c-1.9-2.8-2.9-7.2-2.9-13.2v-67.6
						c0-6.9-2.2-13-6.5-18.3h-26.8c1.1,0.7,2.2,1.6,3.2,2.5c5.4,4.8,8.1,10.5,8.1,17.2v18.8c-25.1,2.8-45.2,8.5-60.3,17
						c-3.7,2.1-6.9,4.2-9.6,6.6v48.7c6.4,4,15,6,25.8,6c8.9,0,16.5-1.5,22.8-4.4c6.3-2.9,13.7-8.8,22.1-17.6
						c3.1,8.2,6.7,13.9,10.8,17.2c4.1,3.2,9.1,4.9,15.1,4.9c7.8,0,15-3.3,21.4-9.9L206.2,229.8z M162.9,195.3
						c0,11.9-3.8,21.8-11.4,29.6c-7.6,7.9-16.6,11.8-27,11.8c-5.8,0-10.5-1.9-14.1-5.7s-5.4-9.1-5.4-15.9c0-9.7,3.5-17.2,10.4-22.4
						c9.3-6.9,25.2-12,47.5-15.1V195.3z M111.8,162.9c2.6-2.5,3.8-5.7,3.8-9.7c0-2.7-1.3-5.9-3.8-9.4c-2.1-2.8-3.2-4.9-3.2-6.2
						c0-2.3,2-4.6,5.9-7c0.1,0,0.1-0.1,0.2-0.1H103c-5.5,0-10,4.5-10,10v23.5c2.5,1.7,5.4,2.6,8.8,2.6
						C105.9,166.7,109.3,165.4,111.8,162.9L111.8,162.9z"/>
				</g>
				<path class="st6" d="M266,355h143c5.5,0,10-4.5,10-10V140.5c0-5.5-4.5-10-10-10H281c-13.8,0-25,11.2-25,25V345
					C256,350.5,260.5,355,266,355z"/>
				<path class="st8" d="M395,130.5v79.6c0,2.8-2.2,5-5,5H284.9c-2.8,0-5-2.2-5-5v-79.5c0.4,0,0.7,0,1.1,0H395z"/>
			</g>
		</g>
		<path class="st9" d="M105,462c-1.3,0-2.6-0.5-3.5-1.5l-4.5-4.5l-4.5,4.5c-2,2-5.1,2-7.1,0c-2-2-2-5.1,0-7.1l8-8c2-2,5.1-2,7.1,0
			l8,8c2,2,2,5.1,0,7.1C107.6,461.5,106.3,462,105,462z"/>
		<path class="st2" d="M256,88c-1.3,0-2.6-0.5-3.5-1.5l-4.5-4.5l-4.5,4.5c-2,2-5.1,2-7.1,0c-2-2-2-5.1,0-7.1l8-8c2-2,5.1-2,7.1,0
			l8,8c2,2,2,5.1,0,7.1C258.6,87.5,257.3,88,256,88L256,88z"/>
		<path class="st9" d="M460,117h-3v-3c0-2.8-2.2-5-5-5s-5,2.2-5,5v3h-3c-2.8,0-5,2.2-5,5s2.2,5,5,5h3v3c0,2.8,2.2,5,5,5s5-2.2,5-5
			v-3h3c2.8,0,5-2.2,5-5S462.8,117,460,117z"/>
		<path class="st4" d="M295.8,53.3h-3v-3c0-2.8-2.2-5-5-5s-5,2.2-5,5v3h-3c-2.8,0-5,2.2-5,5s2.2,5,5,5h3v3c0,2.8,2.2,5,5,5
			s5-2.2,5-5v-3h3c2.8,0,5-2.2,5-5S298.6,53.3,295.8,53.3z"/>
		<path class="st4" d="M75.7,424.1h-3v-3c0-2.8-2.2-5-5-5s-5,2.2-5,5v3h-3c-2.8,0-5,2.2-5,5s2.2,5,5,5h3v3c0,2.8,2.2,5,5,5
			s5-2.2,5-5v-3h3c2.8,0,5-2.2,5-5S78.4,424.1,75.7,424.1z"/>
		<path class="st2" d="M227.2,327H120.7c-2.8,0-5-2.2-5-5v-18.8c0-2.8,2.2-5,5-5h106.6c2.8,0,5,2.2,5,5V322
			C232.2,324.8,230,327,227.2,327z"/>
		<g>
			<path class="st4" d="M390,197.1H284.9c-2.8,0-5-2.2-5-5V98.3c0-2.8,2.2-5,5-5H390c2.8,0,5,2.2,5,5v93.8
				C395,194.9,392.8,197.1,390,197.1z"/>
			<path class="st10" d="M395,122V98.3c0-2.8-2.2-5-5-5H284.9c-2.8,0-5,2.2-5,5V122H395z"/>
			<path class="st11" d="M437,147.3h-13v-6.8c0-8.3-6.7-15-15-15h-9V98.3c0-5.5-4.5-10-10-10h-50.7c-2.8,0-5,2.2-5,5s2.2,5,5,5H390
				v93.8H284.9V98.3h23.8c2.8,0,5-2.2,5-5s-2.2-5-5-5h-23.8c-5.5,0-10,4.5-10,10v27.9c-7.9,1.6-14.6,6.3-18.9,12.8
				c-5.4-8.1-14.6-13.4-25-13.4H103c-8.3,0-15,6.7-15,15v6.8H75c-11,0-20,9-20,20v203.9c0,11,9,20,20,20h121.2v18.5
				c0,3.7,2,7.1,5.3,8.8c3.3,1.7,7.2,1.5,10.3-0.6l10.5-7.2l10.5,7.2c1.7,1.2,3.7,1.7,5.6,1.7c1.6,0,3.2-0.4,4.7-1.2
				c3.3-1.7,5.3-5.1,5.3-8.8v-18.5H437c11,0,20-9,20-20V167.3C457,156.3,448.1,147.3,437,147.3L437,147.3z M261,155.5
				c0-8.9,5.9-16.5,13.9-19v55.6c0,5.5,4.5,10,10,10H390c5.5,0,10-4.5,10-10v-56.6h9c2.8,0,5,2.2,5,5V345c0,2.8-2.2,5-5,5H266
				c-2.8,0-5-2.2-5-5V155.5z M75,381.3c-5.5,0-10-4.5-10-10V167.3c0-5.5,4.5-10,10-10h13v47.4c0,2.8,2.2,5,5,5s5-2.2,5-5v-64.2
				c0-2.8,2.2-5,5-5h128c11,0,20,9,20,20V345c0,2.8-2.2,5-5,5H103c-2.8,0-5-2.2-5-5V235.3c0-2.8-2.2-5-5-5s-5,2.2-5,5V345
				c0,8.3,6.7,15,15,15h93.1v21.3L75,381.3L75,381.3z M238.4,409.8l-13.3-9.1c-1.7-1.2-3.9-1.2-5.6,0l-13.3,9.1V360h32.3
				L238.4,409.8C238.4,409.8,238.4,409.8,238.4,409.8L238.4,409.8z M447,371.3c0,5.5-4.5,10-10,10H248.4v-21.5
				c2.9-0.5,5.5-1.8,7.6-3.6c2.7,2.4,6.2,3.9,10,3.9h143c8.3,0,15-6.7,15-15V157.3h13c5.5,0,10,4.5,10,10L447,371.3L447,371.3z"/>
		</g>
		<path class="st6" d="M324.1,143.6v24.3c0,2.3,2.5,3.8,4.5,2.6l20.8-12.2c2-1.2,2-4,0-5.2L328.6,141
			C326.6,139.8,324.1,141.2,324.1,143.6z"/>
		<g>
			<g>
				<g>
					<path class="st9" d="M227.2,165.7h-64.5c-2.8,0-5-2.2-5-5s2.2-5,5-5h64.5c2.8,0,5,2.2,5,5S230,165.7,227.2,165.7L227.2,165.7z"
						/>
				</g>
				<g>
					<path class="st9" d="M227.2,185.2h-64.5c-2.8,0-5-2.2-5-5s2.2-5,5-5h64.5c2.8,0,5,2.2,5,5S230,185.2,227.2,185.2L227.2,185.2z"
						/>
				</g>
				<path class="st9" d="M227.2,204.7h-64.5c-2.8,0-5-2.2-5-5s2.2-5,5-5h64.5c2.8,0,5,2.2,5,5S230,204.7,227.2,204.7L227.2,204.7z"
					/>
				<g>
					<path class="st9" d="M227.2,224.2h-64.5c-2.8,0-5-2.2-5-5s2.2-5,5-5h64.5c2.8,0,5,2.2,5,5S230,224.2,227.2,224.2L227.2,224.2z"
						/>
				</g>
				<g>
					<path class="st9" d="M227.2,243.7h-64.5c-2.8,0-5-2.2-5-5s2.2-5,5-5h64.5c2.8,0,5,2.2,5,5S230,243.7,227.2,243.7L227.2,243.7z"
						/>
				</g>
			</g>
			<g>
				<g>
					<path class="st9" d="M227.2,263.2H120.7c-2.8,0-5-2.2-5-5c0-2.8,2.2-5,5-5h106.6c2.8,0,5,2.2,5,5S230,263.2,227.2,263.2z"/>
				</g>
				<g>
					<path class="st9" d="M227.2,282.7H120.7c-2.8,0-5-2.2-5-5s2.2-5,5-5h106.6c2.8,0,5,2.2,5,5S230,282.7,227.2,282.7z"/>
				</g>
			</g>
		</g>
		<g>
			<g>
				<g>
					<path class="st9" d="M394.6,229.2h-64.5c-2.8,0-5-2.2-5-5s2.2-5,5-5h64.5c2.8,0,5,2.2,5,5S397.3,229.2,394.6,229.2z"/>
				</g>
				<g>
					<path class="st9" d="M394.6,248.7h-64.5c-2.8,0-5-2.2-5-5s2.2-5,5-5h64.5c2.8,0,5,2.2,5,5S397.3,248.7,394.6,248.7z"/>
				</g>
				<path class="st9" d="M394.6,268.2h-64.5c-2.8,0-5-2.2-5-5s2.2-5,5-5h64.5c2.8,0,5,2.2,5,5S397.3,268.2,394.6,268.2z"/>
				<g>
					<path class="st9" d="M394.6,287.7h-64.5c-2.8,0-5-2.2-5-5s2.2-5,5-5h64.5c2.8,0,5,2.2,5,5S397.3,287.7,394.6,287.7z"/>
				</g>
				<g>
					<path class="st9" d="M394.6,307.2h-64.5c-2.8,0-5-2.2-5-5s2.2-5,5-5h64.5c2.8,0,5,2.2,5,5S397.3,307.2,394.6,307.2z"/>
				</g>
			</g>
			<g>
				<g>
					<path class="st9" d="M394.6,326.7h-64.5c-2.8,0-5-2.2-5-5s2.2-5,5-5h64.5c2.8,0,5,2.2,5,5S397.3,326.7,394.6,326.7z"/>
				</g>
			</g>
		</g>
		<path class="st9" d="M309,327h-24.1c-2.8,0-5-2.2-5-5v-97.8c0-2.8,2.2-5,5-5H309c2.8,0,5,2.2,5,5V322C314,324.8,311.8,327,309,327
			z"/>
		<g>
			<circle class="st4" cx="299.3" cy="110.7" r="3.5"/>
			<circle class="st4" cx="310.5" cy="110.7" r="3.5"/>
			<circle class="st4" cx="321.7" cy="110.7" r="3.5"/>
		</g>
	</g>
</g>
</svg>
