<?xml version="1.0" encoding="utf-8"?>
<!-- Generator: Adobe Illustrator 24.2.1, SVG Export Plug-In . SVG Version: 6.00 Build 0)  -->
<svg version="1.1" id="Capa_1" xmlns="http://www.w3.org/2000/svg" xmlns:xlink="http://www.w3.org/1999/xlink" x="0px" y="0px"
	 viewBox="0 0 512 512" style="enable-background:new 0 0 512 512;" xml:space="preserve">
<style type="text/css">
	.st0{fill:url(#SVGID_1_);}
	.st1{fill:#590BB2;}
	.st2{opacity:0.48;fill:#C182F9;}
	.st3{fill:#C182F9;}
	.st4{fill:#FFA052;}
	.st5{fill:#FDD250;}
</style>
<linearGradient id="SVGID_1_" gradientUnits="userSpaceOnUse" x1="468.7989" y1="850.78" x2="20.4702" y2="335.6199" gradientTransform="matrix(-0.9782 -0.2075 0.2075 -0.9782 371.8737 881.2916)">
	<stop  offset="0" style="stop-color:#FFA052"/>
	<stop  offset="1" style="stop-color:#FFFFFF;stop-opacity:0"/>
</linearGradient>
<path class="st0" d="M34.6,264C25,277.8,18,293.8,14.1,311.4c-14.9,67.2,23,134,85.3,150.3c20.5,5.3,41,4.7,60.1-0.7
	c38.3-11,78.7-2.5,109.3,23.2c15.2,12.8,33.8,21.6,54.6,25.1c63.6,10.5,125.3-35.2,139-102.7c3.6-17.6,3.6-35.1,0.5-51.6
	c-6.7-35.9,1.3-73.5,22-103.7c9.5-13.8,16.6-29.8,20.5-47.4c14.9-67.2-23-134-85.3-150.3c-20.5-5.3-41-4.7-60.1,0.7
	c-38.3,11-78.7,2.5-109.3-23.2C235.4,18.3,216.9,9.5,196,6C132.5-4.4,70.7,41.3,57.1,108.7c-3.6,17.6-3.6,35.1-0.5,51.6
	C63.3,196.3,55.3,233.9,34.6,264L34.6,264z"/>
<g>
	<path class="st1" d="M396.7,78.7c-29.5,0-53.4,23.9-53.4,53.4v106.1h99.3V124.6C442.6,99.2,422.1,78.7,396.7,78.7z"/>
	<path class="st2" d="M350.8,124.6c0-25.3,20.5-45.9,45.9-45.9H157.5c-31.2,0-56.7,25.4-56.7,56.7V454c0,10.2,12.5,15.2,19.5,7.8
		l14.5-15.1l15.3,15.3c4.4,4.4,11.6,4.4,16,0l14.5-14.5l14.7,14.5c4.4,4.4,11.5,4.4,16,0l14.9-14.8l14.9,14.8c4.4,4.4,11.5,4.4,16,0
		l14.4-14.2l14.3,14.2c4.4,4.4,11.5,4.4,16,0l14.9-14.8l14.9,14.8c7.1,7.1,19.3,2,19.3-8.1C350.8,438.3,350.8,134.4,350.8,124.6
		L350.8,124.6z"/>
	<path class="st3" d="M396.7,78.7c-25.3,0-45.9,20.5-45.9,45.9V454c0,10.1-12.2,15.1-19.3,8l-14.9-14.8l-14.9,14.8
		c-4.4,4.4-11.5,4.4-16,0l-14.3-14.2l-14.4,14.2c-4.4,4.4-11.5,4.4-16,0l-14.9-14.8V78.7L396.7,78.7z"/>
	<path class="st1" d="M246.4,181.9c-10.8-8.5-25-9.8-28.2-15.5c-1.1-2,0.1-5.3,2.5-7c3.4-2.3,10.8-1.4,13.4,1c4.6,4.2,11.8,4,16-0.6
		c4.2-4.6,4-11.8-0.6-16c-3.5-3.2-8-5.6-12.8-6.9v-0.9c0-6.3-5.1-11.3-11.3-11.3c-6.3,0-11.3,5.1-11.3,11.3v1.7
		c-16.5,6.2-23.6,25.4-15.6,39.8c8.4,15.1,26,16.1,34.1,22.4c7,5.5,2.9,12.8-2.4,15.2c-4.7,2.2-14.1,0.8-19.7-2.9
		c-5.2-3.4-12.3-2-15.7,3.3c-3.4,5.2-2,12.3,3.3,15.7c4.4,2.9,10,5.2,16.1,6.5v1.4c0,6.3,5.1,11.3,11.3,11.3
		c6.3,0,11.3-5.1,11.3-11.3v-2.3C259.7,228.8,267.9,198.6,246.4,181.9L246.4,181.9z"/>
	<path class="st1" d="M236.7,236.7v2.3c0,6-4.6,10.9-10.5,11.3v-34.4c8.4-0.8,14-10.2,6.2-16.2c-1.7-1.3-3.9-2.4-6.2-3.5v-24.5
		c5.8,2.4,13.6,4.9,20.2,10.1C267.9,198.6,259.7,228.8,236.7,236.7L236.7,236.7z"/>
	<path class="st1" d="M234.1,160.4c-1.5-1.4-4.8-2.3-7.9-2.3v-33.5c5.9,0.4,10.5,5.3,10.5,11.3v0.9c4.8,1.4,9.3,3.7,12.8,6.9
		c4.6,4.2,4.9,11.4,0.6,16S238.7,164.7,234.1,160.4L234.1,160.4z"/>
	<g>
		<path class="st1" d="M158.2,294.9h56.7c6.3,0,11.3-5.1,11.3-11.3c0-6.3-5.1-11.3-11.3-11.3h-56.7c-6.3,0-11.3,5.1-11.3,11.3
			C146.9,289.8,152,294.9,158.2,294.9z"/>
		<path class="st1" d="M214.9,317.6h-56.7c-6.3,0-11.3,5.1-11.3,11.3c0,6.3,5.1,11.3,11.3,11.3h56.7c6.3,0,11.3-5.1,11.3-11.3
			C226.2,322.7,221.1,317.6,214.9,317.6z"/>
		<path class="st1" d="M214.9,362.9h-56.7c-6.3,0-11.3,5.1-11.3,11.3c0,6.3,5.1,11.3,11.3,11.3h56.7c6.3,0,11.3-5.1,11.3-11.3
			C226.2,367.9,221.1,362.9,214.9,362.9z"/>
	</g>
	<circle class="st4" cx="339.8" cy="363.6" r="102"/>
	<path class="st4" d="M441.9,363.6c0,56.3-45.8,102-102,102v-204C396.1,261.6,441.9,307.3,441.9,363.6z"/>
	<circle class="st5" cx="339.8" cy="363.6" r="79.3"/>
	<path class="st4" d="M343.6,320.8c-6.3,0-11.3,5.1-11.3,11.3v23.2h-22.9c-6.3,0-11.3,5.1-11.3,11.3c0,6.3,5.1,11.3,11.3,11.3h34.3
		c6.3,0,11.3-5.1,11.3-11.3v-34.5C355,325.8,349.9,320.8,343.6,320.8z"/>
</g>
</svg>
